<?xml version="1.0" encoding="UTF-8"?>
<svg viewBox="0 0 191.43303 558.81085" xmlns="http://www.w3.org/2000/svg">
 <g transform="translate(13.662 -181.7)">
  <path d="m64.249 533.41 12.122-0.50508 0.50508-47.982 5.0508 48.992 12.627-1.5152 19.698-30.305-38.891-47.982-10.607 1.0102-0.50508 78.287z" fill="#520" fill-rule="evenodd" stroke="#000"/>
  <path d="m34.068 395.25-13.571 120.71c4.3286 20.778 8.0008 41.738 12.742 62.402 11.864 32.953 18.831 70.495 5.1153 104.03l-40.714 22.857c-1.0511 17.551 56.121 4.4383 70.714 3.5714 1.7746-13.729-2.7772-27.379-0.76088-41.196 1.2491-17.131 4.2924-34.064 10.078-50.251 10.907-27.295-1.3302-35.617-14.317-60.696l9.2857-87.143c12.917 31.057 25.157 62.431 38.505 93.286 4.7464 29.895 14.507 55.713 23.786 84.795 4.0492 18.898 9.3673 39.325 3.3165 58.242l-15.607 25.107c3.324 2.5665 4.6931 9.9131 9.4554 8.963 24.715-3.5355 27.951 1.0266 39.76-21.881-1.8076-16.869-6.5763-33.359-7.5057-50.386 9.667-69.363-13.423-111.99-44.797-172.44l-31.198-100.69-54.286 0.71427z" fill="#a40" fill-rule="evenodd" stroke="#000"/>
  <path d="m36.925 418.82 11.429 29.286 22.143 15.714 2.8572 6.4286" fill="#a40" fill-rule="evenodd" stroke="#000"/>
  <path d="m84.783 417.4c-10.209 7.4403-14.297 17.329-15 28.571" fill="#a40" fill-rule="evenodd" stroke="#000"/>
  <path d="m71.211 457.4c2.9882-9.4315 3.4669-19.49 13.571-27.143" fill="#a40" fill-rule="evenodd" stroke="#000"/>
  <path d="m152.21 553.68c-2.8571 0-45-167.14-45-167.14l-25.714 10.714 11.429 125c5.0576 26.708 19.729 35.389 40 33.571l19.286-2.1429z" fill="#520" fill-rule="evenodd" stroke="#000"/>
  <path d="m156.21 551.68c-2.8571 0-45-167.14-45-167.14l-25.714 10.714 11.429 125c5.0576 26.708 19.729 35.389 40 33.571l19.286-2.1429z" fill="#520" fill-rule="evenodd" stroke="#000"/>
  <path d="m9.6397 544.4 20.357-151.43 5 2.1429c-2.0155 59.82-9.9631 148.52-25.357 149.29z" fill="#520" fill-rule="evenodd" stroke="#000"/>
  <path d="m8.1397 542.4 20.357-151.43 5 2.1429c-2.0155 59.82-9.9631 148.52-25.357 149.29z" fill="#520" fill-rule="evenodd" stroke="#000"/>
  <path transform="translate(231.09 170.87)" d="m-135.25 97.969-19.125 12.844-26.375-1.0312c0.25247-1.8904 1.9662-4.3311 5.1562-7.1875l-3.2188-1.4375-21.781 6.4375c-0.73282 1.9362-1.3404 3.8136-1.8438 5.625l-0.3125-2.4062c-14.329 10.205-24.484 21.623-14.625 42.156l-10.375 42.844c-17.903 29.885-7.1446 59.771-8.9062 89.656l-2.4062 6.8438 16.969-1.125 22.781-69.656 2.6562 1.4375c23.798 5.6406 41.603 3.8064 57.844 0l18.562-3.2188-1.0625-32.5-0.34375-4.2812 11.406-14.656c12.404 36.374 28.099 70.551 35.375 110.34-0.50085 2.8203-1.3234 5.4042-2.5 7.6875 5.5963-4.9783 14.168-2.902 19.938 0.3125 12.299-48.951-9.7687-87.437-21.375-133.34 1.3689-16.36 0.07063-31.194-11.781-40l-4.7812-0.1875 0.5-0.53125c-10.499-7.8345-22.366-14.301-40.375-14.625z" fill="#520" fill-rule="evenodd" stroke="#000"/>
  <path d="m56.925 269.54c0.39518 1.5476 1.1714 3.0952-0.71429 4.6428l-16.786 8.5714c14.619 27.888 43.363 10.684 63.214-2.8571l-7.5-11.071c-4.6891-0.5754-2.0436-7.5595-2.8571-11.429l-35 8.2143-0.35714 3.9286z" fill="#ff8080" fill-rule="evenodd" stroke="#000"/>
  <path d="m120.14 338.47-7.5-21.071" fill="none" stroke="#000"/>
  <path d="m30.497 370.25c33.298 6.8486 54.544-1.6413 77.857-7.5l2.1428 27.5c-25.952 4.6942-62.262 11.686-81.071-0.35714l1.0714-19.643z" fill="#d40000" fill-rule="evenodd" stroke="#000"/>
  <path d="m21.568 362.4c5.5254-2.3603 8.2465 0.88804 11.786 2.5 2.6455 12.826 1.0396 24.235 0.71428 36.071-3.6905 1.996-7.381 1.2134-11.071-1.0714-1.0613-12.354-4.2616-24.173-1.4286-37.5z" fill="#a40" fill-rule="evenodd" stroke="#000"/>
  <path d="m90.854 361.32c-2.8076 14.933-0.66945 27.887 1.7857 40.714l6.0714 1.7857c6.467 0.50726 12.805 0.11147 18.214-6.7857 1.8572-12.583 3.3826-25.333-1.0714-41.071-6.2335 6.6852-15.628 5.9938-25 5.3572z" fill="#a40" fill-rule="evenodd" stroke="#000"/>
  <path d="m59.192 372.81-0.49152 23.46" fill="none" stroke="#000" stroke-width="1.0136"/>
  <path d="m37.997 371.68 0.35715 21.607" fill="none" stroke="#000"/>
  <path d="m172.84 457.15c-6.6268-2.2702-10.628-2.818-18.096-1.1581" fill="none" stroke="#000"/>
  <path d="m25.854 424.54-10-1.4286c-13.502 95.364-21.405 177.16 3.2143 48.929l6.7857-47.5z" fill="#a40" fill-rule="evenodd" stroke="#000"/>
  <path d="m18.792 422.55-0.25254-6.0609 9.0914 1.0102-1.2627 6.566-7.5761-1.5152z" fill="#fff" fill-rule="evenodd" stroke="#000"/>
  <path d="m19.802 416.24-0.25254-3.0304 6.3134 0.75761 0.50508 4.0406-6.566-1.7678z" fill="#e6e6e6" fill-rule="evenodd" stroke="#000"/>
  <path d="m18.185 414.76-4.0485-0.76 0.7361-6.08 17.666 3.42-1.4722 5.32-12.882-1.9z" fill="#520" fill-rule="evenodd" stroke="#000" stroke-width="1.4809"/>
  <path d="m19.55 409.42 2.5349-14.984c2.9506-9.1499 5.2188-7.3804 7.0988 0.59851l-2.5626 17.668-7.0711-3.283z" fill="#520" fill-rule="evenodd" stroke="#000"/>
  <path transform="translate(231.09 170.87)" d="m-194.51 416.32c15.65 11.739 29.242 6.3296 42.656-0.56874" fill="none" stroke="#000" stroke-linecap="round" stroke-linejoin="round"/>
  <path transform="translate(231.09 170.87)" d="m-115.46 414.62c13.594 8.1448 27.555 10.767 42.656-3.6968" fill="none" stroke="#000" stroke-linecap="round" stroke-linejoin="round"/>
  <path transform="translate(231.09 170.87)" d="m-115.42 184.67c-2.9492-4.5579-28.099-0.42508-24.532 4.826s6.1374 13.493 11.663 12.869c5.2281 1.2131 10.456 0.66062 15.684-2.413 1.3406-4.5579 0.13406-10.724-2.8152-15.282z" fill="#a40" fill-rule="evenodd" stroke="#000" stroke-linecap="round" stroke-linejoin="round"/>
  <path d="m154.59 455.53-8.8156 8.5312-2.275 22.465c0.94062 2.184 3.9015 3.8158 5.6874 1.5103 1.054-0.67469 1.2962-1.7283 1.1825-2.8902l0.2394-8.8575 3.4125-2.275 1.7062 14.787-7.6781 16.494c1.493 1.9837 3.2874 2.5862 4.4789 0.56875 19.159-32.441 2.9859 0.37917 4.4789 0.56875l8.9578 1.1375c11.888-4.1843 3.2452-20.659 8.8156-21.897l-1.1375-29.006c-3.623-3.3282-8.9339-4.0505-13.583-2.8828-1.8715 0.41537-3.693 1.0318-5.4704 1.7452z" fill="#ff8080" fill-rule="evenodd" stroke="#000" stroke-linecap="round" stroke-linejoin="round"/>
  <path d="m8.7115 462.64-17.631 1.1375c-5.7265 14.815-5.7698 13.388 0.56875 27.015 5.524-0.18006 11.286 0.59099 15.356-5.4031l2.275-12.228-1.9906-2.275 1.4219-8.2468z" fill="#ff8080" fill-rule="evenodd" stroke="#000" stroke-linecap="round" stroke-linejoin="round"/>
  <path d="m97.092 234.75 1.6268 16.23c-5.7871 10.753-13.596 19.028-25.563 22.209-15.278 1.4569-12.732 2.2872-22.077-11.389l-2.7887-40.717 6.507-15.661c7.277-14.244 22.133-7.645 35.091-6.2642l8.3662 27.335-1.162 8.2574z" fill="#ff8080" fill-rule="evenodd" stroke="#000" stroke-linecap="round" stroke-linejoin="round" stroke-width=".90458"/>
  <path transform="translate(231.09 170.87)" d="m-143.89 58.581-14.219 3.9812 8.5312 3.4125 5.6875-7.3937z" fill="#520" fill-rule="evenodd"/>
  <path transform="translate(231.09 170.87)" d="m-160.39 79.056-7.9624 0.56875 4.55 3.9812 3.4125-4.55z" fill="#520" fill-rule="evenodd"/>
  <path transform="translate(231.09 170.87)" d="m-171.76 62.562-7.9624-1.1375 4.55 5.6875 3.4125-4.55z" fill="#520" fill-rule="evenodd"/>
  <path transform="translate(231.09 170.87)" d="m-170.06 90.431 14.219-1.7062" fill="#ff8080" fill-rule="evenodd" stroke="#000" stroke-linecap="round" stroke-linejoin="round"/>
  <path d="m55.82 224.94c1.2898 4.947 7.0366 6.2638 11.085 8.2097 2.0985 0.38353 5.9442 3.635 6.4273 3.2232-2.2263-1.7972-7.0766-6.1342-4.043-7.0574 0.41419 3.5752 7.5354 4.4072 9.0895 4.5889-0.68277-2.043-2.8221-8.0292-1.1603-7.6325 2.5459 3.4381 5.8166 6.6425 9.8252 8.2797 0.30882-2.2519-3.9855-10.337 0.89633-6.494 4.8876 2.2088-0.36809 7.4962 2.2895 11.306 0.48735 2.5915 1.0339 3.8402 2.8918 1.2231 2.8312-0.78835 4.0833-6.7593 3.3903-6.374 2.4291 4.3148 0.54764 8.2493-1.6349 12.164-1.9649 4.4232-1.7931 9.4688-3.0333 14.08-4.2792 10.829-10.454 20.851-14.324 31.84 0.10882 5.7391 6.9763-0.36278 8.9319-2.2616 3.1712-3.0768 5.5155-6.7072 8.1502-10.194 2.3233-3.6044 4.4704-7.5122 7.284-10.652 2.7865-7.2873 5.3592-15.279 3.1476-23.08-1.7944-9.8205-3.0514-19.768-5.2462-29.498-2.3946-6.2982-3.3028-13.312-7.1517-18.959-4.5596-4.8482-11.526-5.958-17.448-8.4065-5.3178 1.34-10.957 3.5488-16.019 6.0402-7.7566 4.456-11.954 12.747-15.194 20.729-0.86625 16.196-2.9041 32.584 0 48.696 2.2278 4.3024 4.9157 8.469 6.8977 12.829 1.0646 5.9564 0.262 12.17 1.7714 18.04-0.40313 2.4943 1.5138 3.8448 2.8069 0.92796 3.8569-7.1772 4.3639-15.55 4.8243-23.527-1.8503-3.6454-6.8892-8.6083-9.2076-12.001-3.8256-4.6936 9.1503 6.2845 5.0504 0.39519-5.1922-7.4172-5.4858-15.542-5.5894-24.483 1.065-2.4942-1.9579-6.8683 0.28793-7.8822 0.00941 4.7949 6.784 6.849 10.836 9.5254-2.2173-4.037-5.5879-7.7452-6.2314-12.444l0.10475-0.64811 0.29532-0.50351z" fill-rule="evenodd"/>
  <path transform="translate(231.09 170.87)" d="m-143.57 118.31 8.4455-52.281-17.695-33.782-12.869 9.652-12.869-4.826-9.6519 36.597 12.065 51.879c-13.057 4.6589-14.033-5.7847-19.304-10.858l-2.0108-20.913 7.6411-64.748c10.891-8.1791 22.419-15.508 37.803-17.695l20.51 5.6303c7.7522 10.395 9.4103 22.314 11.261 34.184l-2.0108 47.858-7.6411 18.902-13.674 0.40216z" fill="#520" fill-rule="evenodd" stroke="#000" stroke-linecap="round" stroke-linejoin="round"/>
  <path d="m40.465 290.79-4.826-38.206 8.0433-51.477 18.902-0.40216 18.5-7.6411 22.119 29.358-1.6087 67.161" fill="none" stroke="#000" stroke-linecap="round" stroke-linejoin="round"/>
  <path transform="translate(231.09 170.87)" d="m-122.66 106.65-3.2173-40.619" fill="none" stroke="#000" stroke-linecap="round" stroke-linejoin="round"/>
  <path transform="translate(231.09 170.87)" d="m-218.4 126.83 7.3937 31.281 5.1187 7.9624 2.8437 24.456" fill="none" stroke="#000" stroke-linecap="round" stroke-linejoin="round"/>
  <path transform="translate(231.09 170.87)" d="m-94.412 112.04-34.125 27.869-21.612 58.012" fill="none" stroke="#000" stroke-linecap="round" stroke-linejoin="round"/>
  <path transform="translate(231.09 170.87)" d="m-198.27 116.3 5.2281-2.6141 2.6141 7.44 3.0162-5.8314 12.467 12.065 7.8422 1.6087 20.711-6.0325 7.239-10.657 9.652 5.2281 1.8097-15.282 5.2281-0.80432 0.80433-1.8097 7.44 3.2173-5.2281 23.527-49.667 17.092-30.564-19.505 1.4076-7.6411z" fill="#520" fill-rule="evenodd"/>
 </g>
</svg>
